<svg width="23" height="33" viewBox="0 0 23 33" fill="none" xmlns="http://www.w3.org/2000/svg">
<path fill-rule="evenodd" clip-rule="evenodd" d="M6.72 0.790283C3.45734 0.790283 0.833337 3.52762 0.833337 6.88095C0.833337 8.91962 1.804 10.7303 3.296 11.8356C2.52704 12.4117 1.90375 13.16 1.47609 14.0204C1.04843 14.8808 0.828295 15.8295 0.833337 16.7903C0.833337 18.8303 1.804 20.6396 3.296 21.7449C2.52704 22.3211 1.90375 23.0693 1.47609 23.9297C1.04843 24.7902 0.828295 25.7388 0.833337 26.6996C0.833337 30.0529 3.45734 32.7903 6.72 32.7903C9.98134 32.7903 12.6067 30.0529 12.6067 26.6996V21.5503C13.6378 22.41 14.9375 22.8813 16.28 22.8823C19.5427 22.881 22.1667 20.1436 22.1667 16.7903C22.172 15.8294 21.952 14.8807 21.5243 14.0202C21.0967 13.1597 20.4732 12.4115 19.704 11.8356C20.473 11.2595 21.0963 10.5112 21.5239 9.65083C21.9516 8.79042 22.1717 7.84177 22.1667 6.88095C22.1667 3.52762 19.5427 0.790283 16.28 0.790283H6.72ZM3.04534 6.88095C3.04534 4.75962 4.70134 3.06095 6.72 3.06095H10.3933V10.701H6.72C4.70134 10.701 3.04534 9.00095 3.04534 6.88095ZM16.28 10.6996H12.6067V3.05962H16.28C18.3 3.05962 19.9547 4.75962 19.9547 6.88095C19.9547 9.00095 18.3 10.6996 16.28 10.6996ZM3.04667 16.7903C3.04667 14.6703 4.70267 12.9703 6.72134 12.9703H10.3947V20.6103H6.72C4.7 20.6103 3.04534 18.9103 3.04534 16.7903H3.04667ZM12.6067 16.7903C12.6067 14.6703 14.2627 12.9703 16.2813 12.9703C18.3013 12.9703 19.956 14.669 19.956 16.7903C19.956 18.9103 18.3013 20.6103 16.2813 20.6103C14.2627 20.6103 12.608 18.9116 12.608 16.7903H12.6067ZM3.04667 26.6996C3.04667 24.5796 4.70267 22.881 6.72134 22.881H10.3947V26.6996C10.3947 28.8209 8.74134 30.5196 6.72134 30.5196C4.70267 30.5196 3.04667 28.8209 3.04667 26.6996Z" fill="#F0E3CA"/>
</svg>
